<?xml version="1.0" standalone="no"?>
<!DOCTYPE svg PUBLIC "-//W3C//DTD SVG 20010904//EN"
 "http://www.w3.org/TR/2001/REC-SVG-20010904/DTD/svg10.dtd">
<svg version="1.0" xmlns="http://www.w3.org/2000/svg"
 width="1400.000000pt" height="1400.000000pt" viewBox="0 0 1400.000000 1400.000000"
 preserveAspectRatio="xMidYMid meet">
<metadata>
Created by potrace 1.14, written by Peter Selinger 2001-2017
</metadata>
<g transform="translate(0.000000,1400.000000) scale(0.100000,-0.100000)"
fill="#000000" stroke="none">
<path d="M750 10255 l0 -175 350 0 350 0 0 175 0 175 -350 0 -350 0 0 -175z"/>
<path d="M3379 10428 c-1 -2 -2 -81 -3 -176 l-1 -172 350 0 351 0 0 175 0 175
-348 0 c-191 0 -348 -1 -349 -2z"/>
<path d="M5129 10423 c-4 -33 -3 -327 2 -334 3 -5 360 -8 875 -7 l869 3 0 170
0 170 -872 3 c-480 1 -873 -1 -874 -5z"/>
<path d="M7929 10428 c0 -2 -2 -81 -2 -176 l-2 -172 1226 0 1225 0 1 175 1
175 -1224 0 c-673 0 -1224 -1 -1225 -2z"/>
<path d="M11077 10263 c1 -93 2 -171 2 -175 1 -5 552 -8 1225 -8 l1223 0 1
175 1 175 -1227 0 -1227 0 2 -167z"/>
<path d="M754 9901 c-2 -2 -4 -81 -4 -175 l0 -171 350 0 350 0 0 175 0 175
-346 0 c-190 0 -347 -2 -350 -4z"/>
<path d="M1982 9895 c-8 -12 -10 -334 -2 -336 3 -1 200 -2 438 -3 l432 -2 0
176 0 175 -431 0 c-281 0 -433 -3 -437 -10z"/>
<path d="M3381 9900 c-8 -6 -8 -321 1 -335 4 -7 126 -10 350 -10 l343 0 0 175
0 175 -343 0 c-189 0 -347 -2 -351 -5z"/>
<path d="M4781 9900 c-9 -7 -7 -327 3 -337 8 -8 685 -12 687 -3 1 3 3 82 4
175 l1 170 -344 0 c-189 0 -347 -2 -351 -5z"/>
<path d="M6529 9885 c-3 -63 -4 -302 -1 -315 3 -14 47 -15 350 -15 l347 0 1
165 c0 91 -1 170 -3 175 -2 7 -123 10 -348 10 -338 0 -345 0 -346 -20z"/>
<path d="M8810 9900 c-4 -3 -7 -81 -6 -175 l1 -170 343 0 c189 0 346 4 349 9
9 13 7 325 -1 333 -8 9 -673 11 -686 3z"/>
<path d="M11955 9900 c-2 -3 -3 -82 -2 -175 l2 -170 348 0 c342 0 347 0 347
20 1 36 1 269 1 300 l-1 31 -346 -1 c-190 0 -347 -2 -349 -5z"/>
<path d="M750 9205 l0 -175 350 0 350 0 0 175 0 175 -350 0 -350 0 0 -175z"/>
<path d="M1979 9378 c-1 -2 -2 -81 -3 -175 l-2 -173 438 0 438 0 0 175 0 175
-435 0 c-239 0 -436 -1 -436 -2z"/>
<path d="M3376 9213 c2 -93 3 -171 3 -175 1 -5 158 -8 349 -8 l349 0 -1 173
-1 172 -350 3 -351 2 2 -167z"/>
<path d="M4776 9213 c1 -93 2 -171 3 -175 1 -5 158 -8 349 -8 l348 0 -1 173 0
172 -350 3 -350 2 1 -167z"/>
<path d="M6527 9213 c0 -93 2 -171 2 -175 1 -5 158 -8 350 -8 l348 0 -1 173
-1 172 -350 3 -350 2 2 -167z"/>
<path d="M8802 9205 l1 -175 348 0 c272 0 349 3 350 13 1 18 1 299 0 320 -1
16 -25 17 -350 17 l-349 0 0 -175z"/>
<path d="M11951 9205 l-1 -175 350 0 c273 0 350 3 351 13 0 6 1 84 1 172 l1
160 -350 3 -350 2 -2 -175z"/>
<path d="M750 8680 l0 -175 350 0 350 0 0 175 0 175 -350 0 -350 0 0 -175z"/>
<path d="M1631 8850 c-4 -3 -7 -80 -6 -172 0 -141 2 -167 15 -170 8 -2 166 -4
350 -3 l335 0 0 173 c0 94 -2 173 -5 173 -17 4 -683 3 -689 -1z"/>
<path d="M2500 8680 l0 -175 350 0 350 0 -2 175 -3 175 -347 0 -348 0 0 -175z"/>
<path d="M3376 8850 c-2 -5 1 -314 3 -335 1 -7 121 -10 349 -10 l347 0 0 175
1 175 -349 0 c-192 0 -350 -2 -351 -5z"/>
<path d="M4779 8855 c-5 0 -3 -324 2 -335 6 -13 151 -15 1226 -15 l1218 0 0
175 0 175 -1222 0 c-673 0 -1223 0 -1224 0z"/>
<path d="M8805 8850 c-1 -3 -2 -81 -1 -175 l1 -170 340 -1 c187 0 345 1 350 3
8 3 11 173 6 333 -1 13 -46 15 -347 15 -190 0 -347 -2 -349 -5z"/>
<path d="M11954 8849 c-6 -11 -3 -339 4 -340 4 -1 161 -2 350 -3 l342 -1 1 25
c1 30 1 182 0 265 l-1 60 -346 0 c-190 0 -348 -3 -350 -6z"/>
<path d="M1100 8155 l0 -175 437 2 438 3 0 173 0 172 -437 0 -438 0 0 -175z"/>
<path d="M2850 8155 l0 -175 438 0 438 0 0 175 1 175 -439 0 -438 0 0 -175z"/>
<path d="M4779 8318 c-1 -7 -2 -86 -3 -175 l-1 -163 350 0 351 0 0 175 0 175
-348 0 c-271 0 -348 -3 -349 -12z"/>
<path d="M6525 8155 l0 -175 350 2 350 3 1 173 1 172 -351 0 -351 0 0 -175z"/>
<path d="M8803 8155 l0 -175 348 0 c272 0 349 3 350 13 1 14 1 269 0 310 l-1
27 -349 0 -348 0 0 -175z"/>
<path d="M11951 8155 l-1 -175 350 0 c192 0 350 3 350 8 1 13 1 256 1 300 l-1
42 -349 0 -349 0 -1 -175z"/>
<path d="M3500 5955 l0 -175 1050 0 1050 0 0 175 0 175 -1050 0 -1050 0 0
-175z"/>
<path d="M6650 5955 l0 -175 350 0 350 0 0 175 0 175 -350 0 -350 0 0 -175z"/>
<path d="M8400 5955 l0 -175 1050 0 1050 0 0 175 0 175 -1050 0 -1050 0 0
-175z"/>
<path d="M3504 5601 c-2 -2 -4 -81 -4 -175 l0 -171 348 0 347 0 3 175 2 175
-345 0 c-191 0 -348 -2 -351 -4z"/>
<path d="M5250 5430 l0 -176 350 1 350 0 0 175 0 176 -350 -1 -350 0 0 -175z"/>
<path d="M6654 5601 c-2 -2 -4 -80 -4 -173 0 -127 3 -168 13 -169 6 -1 164 -2
350 -3 l337 -1 0 175 0 175 -346 0 c-190 0 -347 -2 -350 -4z"/>
<path d="M8054 5595 c-3 -6 -3 -85 -2 -175 l3 -165 348 0 347 0 0 175 0 175
-346 0 c-233 0 -348 -3 -350 -10z"/>
<path d="M3500 4905 l0 -175 1050 0 1050 0 0 175 0 175 -1050 0 -1050 0 0
-175z"/>
<path d="M6650 4905 l0 -175 350 0 350 0 0 175 0 175 -350 0 -350 0 0 -175z"/>
<path d="M8400 4905 l0 -175 875 0 875 0 0 175 0 175 -875 0 -875 0 0 -175z"/>
<path d="M3502 4380 l3 -175 348 0 347 0 -2 175 -3 175 -348 0 -347 0 2 -175z"/>
<path d="M5250 4380 l0 -175 350 0 350 0 0 175 0 175 -350 0 -350 0 0 -175z"/>
<path d="M6660 4552 c-12 -4 -14 -341 -2 -343 4 -1 161 -2 350 -3 l342 -1 0
175 0 175 -340 0 c-187 0 -344 -1 -350 -3z"/>
<path d="M9804 4551 c-2 -2 -4 -80 -4 -173 0 -127 3 -168 13 -169 6 -1 164 -2
350 -3 l337 -1 0 175 0 175 -346 0 c-190 0 -347 -2 -350 -4z"/>
<path d="M3500 3855 l0 -175 350 0 350 0 0 175 0 175 -350 0 -350 0 0 -175z"/>
<path d="M5250 3855 l0 -175 350 0 350 0 0 175 0 175 -350 0 -350 0 0 -175z"/>
<path d="M6650 3855 l0 -175 350 0 350 0 0 175 0 175 -350 0 -350 0 0 -175z"/>
<path d="M8050 3855 l0 -175 1050 0 1050 0 0 175 0 175 -1050 0 -1050 0 0
-175z"/>
</g>
</svg>
